<svg id="Layer_1" data-name="Layer 1" xmlns="http://www.w3.org/2000/svg" viewBox="0 0 403.55 133.22"><defs><style>.cls-1{fill:#194c62;}.cls-2{fill:#63b1bc;}</style></defs><title>RVAJS_Full</title><path class="cls-1" d="M209.2,114.56H193.58l-8-42.2h-3.84v42.2h-15.2V18.66h20c11.92,0,21.65,6.44,21.65,26.44,0,11.1-3.15,18.63-8.5,22.88ZM192.76,45.78c0-10.55-2.06-14.11-7.4-14.11h-3.57V59.76H185C190.16,59.76,192.76,55.92,192.76,45.78Z"/><path class="cls-1" d="M259.36,18.66l-15.49,95.9h-15.2l-15.49-95.9H228.8l5.62,46.86c1,8.21,1.64,18.22,2.19,25.34.41-7.12,1-17.13,1.92-25.48l5.07-46.72Z"/><path class="cls-1" d="M305.13,114.56H289.78l-2.6-21.1H276l-2.47,21.1H258.27l15.21-95.9h16.44ZM285.67,79.63l-2.19-17.54c-.82-6.85-1.78-14.66-2.19-22.19-.27,7.53-1.24,15.48-2.06,22.32l-2.05,17.41Z"/><path class="cls-2" d="M349.53,89.21c0,18.51-7,26.86-20.69,26.86-14.66,0-19.59-10.82-20.55-25.49l14.66-3c.82,11.24,2.33,14.39,6.16,14.39,3.56,0,4.93-3,4.93-11.51V18.66h15.49Z"/><path class="cls-2" d="M400,92.09c0,14.12-7.4,24-20.42,24-13.7,0-19.87-9.59-21.24-25.89L373,87.57c1.09,11.65,3.15,14.52,6.57,14.52,3.84,0,5.48-2.46,5.48-8.63,0-9.18-2.6-13.7-11.51-23C364.06,60.31,359,51.54,359,40.58c0-13.43,6.58-23.43,19.73-23.43,13.43,0,18.77,9,20.55,23.15l-14.38,3c-1.1-9.45-2.74-12.33-6.17-12.33s-4.93,2.33-4.93,8.35c0,6.72,2.19,10.83,9.86,18.78C394.61,69.49,400,78.94,400,92.09Z"/><path class="cls-2" d="M13.17,62.27q7.55,2.48,7.53,10.67l-.37,34.63q0,6.33,5.37,6.33h4.59l-.13,8.57H23.58q-13.53,0-13.44-15.27l.31-33.14q.09-6.45-6.86-6.46l.06-10q7,0,7-6.45L11,26q.09-15.27,13.62-15.27h6.58l-.13,8.57H26.46q-5.34,0-5.32,6.33l-.32,27.06Q20.79,60.53,13.17,62.27Z"/><path class="cls-2" d="M116.62,62.27Q109,60.53,109,52.71l.32-27.06q0-6.33-5.36-6.33H99.5l.12-8.57h6.58q13.41,0,13.32,15.27l-.28,25.08q-.09,6.45,7,6.45l-.06,10q-7.08,0-7.17,6.46l-.31,33.14q-.08,15.27-13.49,15.27H98.74l.12-8.57h4.35c3.55,0,5.33-2.11,5.31-6.33l.37-34.63Q108.91,64.75,116.62,62.27Z"/><polygon class="cls-1" points="57.91 59.71 65 39.24 72.13 59.69 93.79 60.11 76.54 73.22 82.83 93.95 65.04 81.59 47.27 93.98 53.52 73.24 36.25 60.17 57.91 59.71"/></svg>