<svg id="Layer_1" data-name="Layer 1" xmlns="http://www.w3.org/2000/svg" viewBox="0 0 438.7 155.01"><defs><style>.cls-1{fill:#fff;}.cls-2{fill:#63b1bc;}</style></defs><title>RVAJS 19 - Logo Files</title><path class="cls-1" d="M226.77,125.31H211.15l-7.94-42.19h-3.84v42.19H184.16V29.41h20c11.92,0,21.65,6.44,21.65,26.44,0,11.1-3.16,18.64-8.5,22.88ZM210.33,56.54c0-10.55-2.05-14.11-7.39-14.11h-3.57V70.51h3.15C207.73,70.51,210.33,66.68,210.33,56.54Z"/><path class="cls-1" d="M276.93,29.41l-15.48,95.9H246.24l-15.48-95.9h15.62L252,76.27c1,8.22,1.64,18.22,2.19,25.35.41-7.13,1-17.13,1.91-25.49l5.07-46.72Z"/><path class="cls-1" d="M322.7,125.31H307.36l-2.61-21.09H293.52l-2.46,21.09H275.85l15.21-95.9h16.43ZM303.25,90.38l-2.2-17.54c-.81-6.85-1.77-14.66-2.18-22.19-.28,7.53-1.24,15.48-2.06,22.33l-2.06,17.4Z"/><path class="cls-2" d="M367.11,100c0,18.5-7,26.85-20.69,26.85-14.66,0-19.6-10.82-20.55-25.48l14.65-3c.83,11.24,2.33,14.39,6.17,14.39,3.56,0,4.93-3,4.93-11.51V29.41h15.49Z"/><path class="cls-2" d="M417.53,102.85c0,14.11-7.39,24-20.41,24-13.7,0-19.87-9.59-21.24-25.89l14.66-2.61c1.1,11.65,3.16,14.53,6.58,14.53,3.84,0,5.48-2.47,5.48-8.63,0-9.18-2.6-13.71-11.51-23-9.45-10.14-14.52-18.91-14.52-29.87,0-13.43,6.58-23.43,19.73-23.43,13.42,0,18.77,9,20.55,23.15l-14.38,3c-1.1-9.45-2.75-12.33-6.17-12.33s-4.94,2.33-4.94,8.36c0,6.71,2.2,10.82,9.87,18.77C412.19,80.24,417.53,89.69,417.53,102.85Z"/><path class="cls-2" d="M30.74,73q7.56,2.49,7.54,10.67l-.37,34.64q0,6.33,5.36,6.33h4.6l-.13,8.56H41.16q-13.53,0-13.44-15.27L28,84.81q.11-6.45-6.85-6.45l.06-10.06q6.94,0,7.05-6.45l.28-25.08Q28.65,21.5,42.18,21.5h6.57l-.12,8.57H44c-3.55,0-5.33,2.11-5.31,6.33L38.4,63.46Q38.37,71.28,30.74,73Z"/><path class="cls-2" d="M134.2,73q-7.65-1.74-7.62-9.56l.33-27.06q0-6.33-5.37-6.33h-4.46l.12-8.57h6.58q13.41,0,13.32,15.27l-.28,25.08q-.1,6.45,7,6.45l-.06,10.06q-7.08,0-7.17,6.45L136.26,118q-.09,15.27-13.49,15.27h-6.46l.13-8.56h4.34q5.34,0,5.32-6.33l.36-34.64Q126.49,75.5,134.2,73Z"/><polygon class="cls-1" points="75.48 70.46 82.58 49.99 89.71 70.45 111.37 70.87 94.12 83.97 100.41 104.7 82.62 92.34 64.85 104.73 71.1 83.99 53.83 70.92 75.48 70.46"/></svg>