<svg id="Layer_1" data-name="Layer 1" xmlns="http://www.w3.org/2000/svg" viewBox="0 0 417.63 62.55"><defs><style>.cls-1{fill:#00aeef;stroke:#1a4c62;stroke-miterlimit:10;stroke-width:4px;}.cls-2{fill:#63b1bc;}.cls-3{fill:#194c62;}</style></defs><title>separator</title><line class="cls-1" y1="31.27" x2="164.47" y2="31.27"/><line class="cls-1" x1="253.16" y1="31.27" x2="417.63" y2="31.27"/><path class="cls-2" d="M185.56,34.49a5.72,5.72,0,0,1,4.22,6l-.21,19.39q0,3.54,3,3.54h2.57l-.07,4.8h-3.68q-7.57,0-7.53-8.55L184,41.1q.06-3.62-3.84-3.62l0-5.63c2.59,0,3.91-1.2,3.94-3.61l.16-14q.06-8.55,7.63-8.55h3.68l-.07,4.8H193c-2,0-3,1.18-3,3.54l-.18,15.15A5,5,0,0,1,185.56,34.49Z" transform="translate(-5.71 -5.65)"/><path class="cls-2" d="M243.48,34.49a4.93,4.93,0,0,1-4.26-5.35L239.4,14q0-3.54-3-3.54h-2.5l.07-4.8h3.69q7.5,0,7.46,8.55l-.16,14q-.06,3.61,3.91,3.61l0,5.63q-4,0-4,3.62l-.18,18.55q0,8.55-7.55,8.55h-3.61l.07-4.8H236q3,0,3-3.54l.21-19.39A5.75,5.75,0,0,1,243.48,34.49Z" transform="translate(-5.71 -5.65)"/><polygon class="cls-3" points="204.9 27.41 208.87 15.95 212.86 27.4 224.99 27.64 215.33 34.97 218.85 46.58 208.89 39.66 198.94 46.6 202.44 34.99 192.77 27.67 204.9 27.41"/></svg>