<?xml version="1.0" standalone="no"?>
<!DOCTYPE svg PUBLIC "-//W3C//DTD SVG 20010904//EN"
 "http://www.w3.org/TR/2001/REC-SVG-20010904/DTD/svg10.dtd">
<svg version="1.0" xmlns="http://www.w3.org/2000/svg"
 width="501.000000pt" height="501.000000pt" viewBox="0 0 501.000000 501.000000"
 preserveAspectRatio="xMidYMid meet">
<metadata>
Created by potrace 1.11, written by Peter Selinger 2001-2013
</metadata>
<g transform="translate(0.000000,501.000000) scale(0.100000,-0.100000)"
fill="#000000" stroke="none">
<path d="M3660 4748 l0 -258 68 5 c130 10 243 -55 293 -167 l23 -53 1 -715 c1
-507 5 -727 13 -755 38 -133 185 -262 312 -275 8 -1 -11 -10 -43 -21 -127 -43
-219 -132 -262 -254 -17 -46 -18 -106 -20 -800 0 -412 -5 -761 -9 -775 -4 -14
-19 -41 -33 -62 -38 -56 -160 -98 -287 -99 l-61 -1 1 -256 1 -257 144 0 c177
0 262 9 353 37 168 50 287 141 364 277 22 38 62 149 68 188 3 20 8 45 12 57 3
11 6 335 7 719 2 383 6 720 9 748 11 79 56 159 108 190 50 31 92 40 206 41
l82 1 0 257 0 258 -112 4 c-122 4 -165 17 -213 66 -31 30 -60 94 -71 153 -4
24 -8 350 -9 724 -1 374 -5 696 -9 715 -19 102 -32 143 -71 225 -91 190 -257
297 -515 331 -19 3 -106 6 -192 8 l-158 2 0 -258z"/>
<path d="M1147 4994 c-1 -1 -41 -4 -88 -8 -109 -7 -176 -21 -259 -54 -211 -83
-324 -228 -376 -482 -4 -19 -9 -242 -11 -495 -7 -1053 -5 -973 -35 -1037 -34
-73 -52 -92 -113 -119 -39 -17 -72 -23 -148 -25 -54 -1 -101 -4 -104 -7 -3 -4
-6 -119 -7 -257 -1 -216 1 -250 14 -251 8 0 53 -2 100 -3 47 -1 104 -7 127
-14 60 -18 116 -75 141 -144 20 -55 21 -75 25 -795 4 -828 2 -800 78 -961 40
-84 104 -160 179 -213 68 -48 162 -83 306 -114 16 -4 111 -8 211 -10 l182 -3
0 258 0 259 -72 0 c-132 1 -234 41 -282 109 l-30 44 -2 726 c-1 400 -4 751 -7
780 -5 56 -51 159 -89 202 -45 51 -113 95 -175 116 -66 23 -68 26 -17 38 47
12 141 73 178 116 41 49 73 110 87 170 7 29 12 292 13 750 2 650 3 707 19 735
10 17 18 35 18 41 0 19 79 85 127 106 27 12 78 22 132 25 l88 6 0 253 c0 177
-3 254 -11 255 -25 1 -198 4 -199 3z"/>
<path d="M2467 3377 c-34 -108 -117 -374 -165 -524 -15 -48 -20 -53 -47 -54
-16 0 -178 -1 -359 0 -314 0 -328 0 -310 -17 10 -10 134 -100 274 -201 140
-101 263 -191 272 -199 16 -13 16 -17 -2 -66 -24 -67 -181 -547 -185 -566 -2
-8 -8 -28 -14 -43 l-11 -28 32 22 c18 13 74 53 123 89 50 37 168 123 263 193
l174 126 106 -78 c59 -42 191 -139 295 -214 103 -75 187 -134 187 -131 0 2
-35 109 -77 237 -42 128 -78 237 -79 242 -1 6 -17 54 -35 108 -22 64 -29 101
-23 105 8 5 546 395 563 409 2 2 2 5 0 7 -5 5 -595 20 -670 17 l-45 -1 -17 52
c-41 122 -119 364 -121 373 -7 29 -77 238 -84 250 -5 10 -21 -27 -45 -108z"/>
</g>
</svg>
